<?xml version='1.0' encoding='UTF-8'?>
<svg xmlns="http://www.w3.org/2000/svg" version="1.1" id="svg_bg_variant" width="1122.52" height="793.70135" viewBox="0 0 1122.52 793.70135" style="opacity: 0.2; pointer-events: none;"><defs><mask id="swordCutout"><rect x="-5000" y="-5000" width="10000" height="10000" fill="white" /><path id="path15" d="M 0,0 5.632,6.797 C 6.176,7.453 6.473,8.279 6.473,9.131 V 38.616 H 2.374 c -0.673,0 -1.218,0.545 -1.218,1.218 v 2.859 c 0,0.673 0.545,1.218 1.218,1.218 H 6.473 L 1.326,50.748 C 1.167,50.96 1.081,51.217 1.081,51.481 v 1.391 c 0,0.672 0.545,1.217 1.217,1.217 h 4.175 l -5.068,7.739 c -0.129,0.198 -0.199,0.43 -0.199,0.667 v 1.309 c 0,0.673 0.546,1.218 1.218,1.218 h 4.049 l -4.876,7.797 c -0.121,0.193 -0.186,0.417 -0.186,0.645 v 1.074 c 0,0.672 0.546,1.218 1.218,1.218 H 6.473 L 1.638,83.61 c -0.118,0.192 -0.18,0.413 -0.18,0.639 v 1.274 c 0,0.673 0.545,1.218 1.217,1.218 H 6.473 L 1.498,94.58 c -0.124,0.195 -0.19,0.421 -0.19,0.652 v 1.116 c 0,0.673 0.546,1.218 1.218,1.218 h 3.947 l -4.899,7.689 c -0.125,0.196 -0.191,0.423 -0.191,0.654 v 1.489 c 0,0.672 0.545,1.217 1.218,1.217 h 4.157 v 165.701 l -46.947,29.305 V 89.818 h 18.413 c 1.821,0 3.297,-1.476 3.297,-3.297 V 32.366 l 18.14,-9.164 z" transform="matrix(1.3333333,0,0,-1.3333333,587.16787,496.1864)" clip-path="url(#clipPath16)" fill="black" stroke="black" stroke-width="15" />
    <path id="path17" d="m 0,0 4.209,12.336 c 0.376,1.101 -0.443,2.246 -1.608,2.246 -0.937,0 -1.698,0.76 -1.698,1.698 v 0.337 c 0,0.765 0.513,1.436 1.252,1.638 l 5.641,1.538 c 0.738,0.202 1.251,0.873 1.251,1.639 v 4.963 c 0,0.938 -0.76,1.698 -1.698,1.698 H -0.36 c -0.938,0 -1.698,0.76 -1.698,1.698 v 94.493 c 0,0.157 0.022,0.313 0.065,0.464 l 5.423,19.056 c 0.043,0.152 0.064,0.308 0.064,0.465 v 28.603 c 0,0.637 -0.356,1.221 -0.923,1.511 l -16.576,8.504 c -0.567,0.291 -0.923,0.874 -0.923,1.511 v 51.532 c 0,0.938 -0.76,1.698 -1.698,1.698 h -22.213 c -0.938,0 -1.698,-0.76 -1.698,-1.698 v -63.226 c 0,-0.211 0.039,-0.419 0.115,-0.615 l 20.806,-53.553 c 0.076,-0.196 0.115,-0.405 0.115,-0.615 V 24.353 c 0,-0.289 -0.074,-0.573 -0.214,-0.825 l -5.515,-9.927 c -0.234,-0.422 -0.278,-0.924 -0.12,-1.381 l 4.234,-12.227 c 0.237,-0.684 0.881,-1.143 1.605,-1.143 h 17.904 c 0.726,0 1.372,0.462 1.607,1.15" transform="matrix(1.3333333,0,0,-1.3333333,577.402,700.80987)" clip-path="url(#clipPath18)" fill="black" stroke="black" stroke-width="15" />
    <path id="path19" d="m 0,0 4.209,12.336 c 0.376,1.101 -0.443,2.246 -1.608,2.246 -0.937,0 -1.698,0.76 -1.698,1.698 v 0.337 c 0,0.765 0.513,1.436 1.252,1.638 l 5.641,1.538 c 0.738,0.202 1.251,0.873 1.251,1.639 v 4.963 c 0,0.938 -0.76,1.698 -1.698,1.698 H -0.36 c -0.938,0 -1.698,0.76 -1.698,1.698 v 94.493 c 0,0.157 0.022,0.313 0.065,0.464 l 5.423,19.056 c 0.043,0.152 0.064,0.308 0.064,0.465 v 28.603 c 0,0.637 -0.356,1.221 -0.923,1.511 l -16.576,8.504 c -0.567,0.291 -0.923,0.874 -0.923,1.511 v 51.532 c 0,0.938 -0.76,1.698 -1.698,1.698 h -22.213 c -0.938,0 -1.698,-0.76 -1.698,-1.698 v -63.226 c 0,-0.211 0.039,-0.419 0.115,-0.615 l 20.806,-53.553 c 0.076,-0.196 0.115,-0.405 0.115,-0.615 V 24.353 c 0,-0.289 -0.074,-0.573 -0.214,-0.825 l -5.515,-9.927 c -0.234,-0.422 -0.278,-0.924 -0.12,-1.381 l 4.234,-12.227 c 0.237,-0.684 0.881,-1.143 1.605,-1.143 h 17.904 c 0.726,0 1.372,0.462 1.607,1.15 z" transform="matrix(1.3333333,0,0,-1.3333333,577.402,700.80987)" clip-path="url(#clipPath20)" fill="black" stroke="black" stroke-width="15" />
    <path id="path21" d="M 0,0 5.632,6.797 C 6.176,7.453 6.473,8.279 6.473,9.131 V 38.616 H 2.374 c -0.673,0 -1.218,0.545 -1.218,1.218 v 2.859 c 0,0.673 0.545,1.218 1.218,1.218 H 6.473 L 1.326,50.748 C 1.167,50.96 1.081,51.217 1.081,51.481 v 1.391 c 0,0.672 0.545,1.217 1.217,1.217 h 4.175 l -5.068,7.739 c -0.129,0.198 -0.199,0.43 -0.199,0.667 v 1.309 c 0,0.673 0.546,1.218 1.218,1.218 h 4.049 l -4.876,7.797 c -0.121,0.193 -0.186,0.417 -0.186,0.645 v 1.074 c 0,0.672 0.546,1.218 1.218,1.218 H 6.473 L 1.638,83.61 c -0.118,0.192 -0.18,0.413 -0.18,0.639 v 1.274 c 0,0.673 0.545,1.218 1.217,1.218 H 6.473 L 1.498,94.58 c -0.124,0.195 -0.19,0.421 -0.19,0.652 v 1.116 c 0,0.673 0.546,1.218 1.218,1.218 h 3.947 l -4.899,7.689 c -0.125,0.196 -0.191,0.423 -0.191,0.654 v 1.489 c 0,0.672 0.545,1.217 1.218,1.217 h 4.157 v 165.701 l -46.947,29.305 V 89.818 h 18.413 c 1.821,0 3.297,-1.476 3.297,-3.297 V 32.366 l 18.14,-9.164 z" transform="matrix(1.3333333,0,0,-1.3333333,587.16787,496.1864)" clip-path="url(#clipPath22)" fill="black" stroke="black" stroke-width="15" />
    <path id="path23" d="m 0,0 4.209,12.336 c 0.376,1.101 -0.443,2.246 -1.608,2.246 -0.937,0 -1.698,0.76 -1.698,1.698 v 0.337 c 0,0.765 0.513,1.436 1.252,1.638 l 5.641,1.538 c 0.738,0.202 1.251,0.873 1.251,1.639 v 4.963 c 0,0.938 -0.76,1.698 -1.698,1.698 H -0.36 c -0.938,0 -1.698,0.76 -1.698,1.698 v 94.493 c 0,0.157 0.022,0.313 0.065,0.464 l 5.423,19.056 c 0.043,0.152 0.064,0.308 0.064,0.465 v 28.603 c 0,0.637 -0.356,1.221 -0.923,1.511 l -16.576,8.504 c -0.567,0.291 -0.923,0.874 -0.923,1.511 v 51.532 c 0,0.938 -0.76,1.698 -1.698,1.698 h -22.213 c -0.938,0 -1.698,-0.76 -1.698,-1.698 v -63.226 c 0,-0.211 0.039,-0.419 0.115,-0.615 l 20.806,-53.553 c 0.076,-0.196 0.115,-0.405 0.115,-0.615 V 24.353 c 0,-0.289 -0.074,-0.573 -0.214,-0.825 l -5.515,-9.927 c -0.234,-0.422 -0.278,-0.924 -0.12,-1.381 l 4.234,-12.227 c 0.237,-0.684 0.881,-1.143 1.605,-1.143 h 17.904 c 0.726,0 1.372,0.462 1.607,1.15" transform="matrix(1.3333333,0,0,-1.3333333,577.402,700.80987)" clip-path="url(#clipPath24)" fill="black" stroke="black" stroke-width="15" />
  </mask></defs><g mask="url(#swordCutout)"><path id="path1" d="m 0,0 c -13.952,-21.956 -23.23,-48.68 -23.23,-76.62 0,-78.315 63.487,-141.802 141.802,-141.802 78.314,0 141.801,63.487 141.801,141.802 0,27.94 -8.809,54.664 -22.76,76.62 0,0 72.989,-49.036 46.264,-133.545 2.209,1.641 4.514,3.62 6.772,6.004 8.942,9.444 12.373,20.205 13.814,26.861 2.135,-7.283 3.892,-16.646 3.494,-27.485 -1.219,-33.201 -21.748,-55.749 -28.776,-62.827 2.786,1.114 5.767,2.494 8.855,4.213 7.9,4.397 13.858,9.539 18.145,13.97 0.836,-5.465 0.592,-10.19 -0.097,-14.121 -5.591,-31.899 -46.542,-45.856 -50.85,-47.259 l 26.944,0.667 c -9.262,-10.048 -25.639,-25.004 -50.102,-34.924 -11.792,-4.782 -22.698,-7.272 -31.701,-8.585 5.043,-0.784 10.372,-1.453 15.966,-1.954 9.662,-0.866 18.689,-1.105 26.95,-0.948 -10.105,-9.876 -25.988,-23.035 -48.227,-33.387 -31.55,-14.686 -60.293,-16.465 -76.493,-16.232 -16.199,-0.233 -44.943,1.546 -76.492,16.232 -22.239,10.352 -38.122,23.511 -48.227,33.387 8.261,-0.157 17.288,0.082 26.949,0.948 5.595,0.501 10.924,1.17 15.967,1.954 -9.003,1.313 -19.909,3.803 -31.701,8.585 -24.463,9.92 -40.84,24.876 -50.102,34.924 8.981,-0.222 17.963,-0.445 26.944,-0.667 -4.308,1.403 -45.259,15.36 -50.85,47.259 -0.689,3.931 -0.933,8.656 -0.097,14.121 4.287,-4.431 10.244,-9.573 18.145,-13.97 3.088,-1.719 6.069,-3.099 8.855,-4.213 -7.028,7.078 -27.557,29.626 -28.776,62.827 -0.398,10.839 1.359,20.202 3.494,27.485 1.44,-6.656 4.872,-17.417 13.814,-26.861 2.258,-2.384 4.562,-4.363 6.772,-6.004 C -73.459,-49.036 0,0 0,0 Z" transform="matrix(1.3333333,0,0,-1.3333333,403.16467,223.63293)" clip-path="url(#clipPath2)" fill="#001100" fill-opacity="1" stroke="#32FF32" stroke-width="4" />
    <path id="path3" d="m 0,0 c 0,-73.903 -59.91,-133.812 -133.812,-133.812 -73.903,0 -133.813,59.909 -133.813,133.812 0,73.902 59.91,133.812 133.813,133.812 C -59.91,133.812 0,73.902 0,0 Z" transform="matrix(1.3333333,0,0,-1.3333333,739.67627,326.1476)" clip-path="url(#clipPath4)" fill="#001100" fill-opacity="1" stroke="#32FF32" stroke-width="4" />
    <path id="path5" d="m 0,0 c -13.952,-21.956 -23.23,-48.68 -23.23,-76.62 0,-78.315 63.487,-141.802 141.802,-141.802 78.314,0 141.801,63.487 141.801,141.802 0,27.94 -8.809,54.664 -22.76,76.62 0,0 72.989,-49.036 46.264,-133.545 2.209,1.641 4.514,3.62 6.772,6.004 8.942,9.444 12.373,20.205 13.814,26.861 2.135,-7.283 3.892,-16.646 3.494,-27.485 -1.219,-33.201 -21.748,-55.749 -28.776,-62.827 2.786,1.114 5.767,2.494 8.855,4.213 7.9,4.397 13.858,9.539 18.145,13.97 0.836,-5.465 0.592,-10.19 -0.097,-14.121 -5.591,-31.899 -46.542,-45.856 -50.85,-47.259 l 26.944,0.667 c -9.262,-10.048 -25.639,-25.004 -50.102,-34.924 -11.792,-4.782 -22.698,-7.272 -31.701,-8.585 5.043,-0.784 10.372,-1.453 15.966,-1.954 9.662,-0.866 18.689,-1.105 26.95,-0.948 -10.105,-9.876 -25.988,-23.035 -48.227,-33.387 -31.55,-14.686 -60.293,-16.465 -76.493,-16.232 -16.199,-0.233 -44.943,1.546 -76.492,16.232 -22.239,10.352 -38.122,23.511 -48.227,33.387 8.261,-0.157 17.288,0.082 26.949,0.948 5.595,0.501 10.924,1.17 15.967,1.954 -9.003,1.313 -19.909,3.803 -31.701,8.585 -24.463,9.92 -40.84,24.876 -50.102,34.924 8.981,-0.222 17.963,-0.445 26.944,-0.667 -4.308,1.403 -45.259,15.36 -50.85,47.259 -0.689,3.931 -0.933,8.656 -0.097,14.121 4.287,-4.431 10.244,-9.573 18.145,-13.97 3.088,-1.719 6.069,-3.099 8.855,-4.213 -7.028,7.078 -27.557,29.626 -28.776,62.827 -0.398,10.839 1.359,20.202 3.494,27.485 1.44,-6.656 4.872,-17.417 13.814,-26.861 2.258,-2.384 4.562,-4.363 6.772,-6.004 C -73.459,-49.036 0,0 0,0" transform="matrix(1.3333333,0,0,-1.3333333,403.16467,223.63293)" clip-path="url(#clipPath6)" fill="#001100" fill-opacity="1" stroke="#32FF32" stroke-width="4" />
    <path id="path8" d="m 487.382,389.388 2.569,-10.31 0.047,0.017 c -3.373,-1.939 -6.37,-4.457 -8.851,-7.425 v 0 l 0.023,0.039 -9.655,4.411 -4.595,-7.96 8.592,-6.242 c -1.282,-3.509 -1.982,-7.299 -1.982,-11.253 v 0 c 0,-0.025 0.001,-0.049 0.001,-0.075 v 0 l -0.006,0.035 -10.231,-2.826 1.596,-9.052 10.596,0.741 c 1.333,-3.674 3.307,-7.039 5.782,-9.967 v 0 l -0.047,0.039 -6.021,-8.742 7.041,-5.907 7.642,7.381 -0.035,0.03 c 3.297,-1.92 6.959,-3.279 10.859,-3.952 v 0 h -0.051 l 1.008,-10.565 h 9.19 l 1.111,10.565 h -0.05 c 3.898,0.673 7.56,2.032 10.858,3.952 v 0 l -0.035,-0.029 7.564,-7.448 7.04,5.908 -5.941,8.808 -0.048,-0.04 c 2.476,2.928 4.449,6.294 5.782,9.969 v 0 l 10.579,-0.843 1.596,9.051 -10.214,2.928 -0.006,-0.036 c 0,0.026 0.002,0.05 0.002,0.075 v 0 c 0,3.954 -0.7,7.745 -1.983,11.254 v 0 l 8.644,6.153 -4.596,7.96 -9.706,-4.322 0.023,-0.04 c -2.48,2.968 -5.478,5.486 -8.851,7.425 v 0 l 0.046,-0.017 2.667,10.275 -8.636,3.142 -4.658,-9.549 0.051,-0.019 c -1.878,0.335 -3.808,0.52 -5.783,0.52 v 0 c -1.973,0 -3.904,-0.185 -5.781,-0.52 v 0 l 0.049,0.018 -4.56,9.585 z m 0.194,-38.723 c 0,10.347 8.388,18.735 18.734,18.735 v 0 c 10.348,0 18.736,-8.388 18.736,-18.735 v 0 c 0,-10.347 -8.388,-18.734 -18.736,-18.734 v 0 c -10.346,0 -18.734,8.387 -18.734,18.734" transform="matrix(1.3333333,0,0,-1.3333333,0,793.70133)" fill="#001100" fill-opacity="1" stroke="#32FF32" stroke-width="4" />
    <path id="path11" d="m 441.388,315.529 2.57,-10.309 0.046,0.017 c -3.373,-1.94 -6.37,-4.457 -8.85,-7.425 v 0 l 0.022,0.038 -9.654,4.411 -4.596,-7.959 8.593,-6.243 c -1.283,-3.509 -1.983,-7.299 -1.983,-11.252 v 0 c 0,-0.026 0.002,-0.05 0.002,-0.075 v 0 l -0.007,0.035 -10.231,-2.827 1.596,-9.051 10.597,0.741 c 1.333,-3.674 3.306,-7.039 5.781,-9.967 v 0 l -0.047,0.039 -6.02,-8.742 7.04,-5.908 7.644,7.381 -0.037,0.031 c 3.298,-1.92 6.96,-3.28 10.859,-3.951 v 0 h -0.049 l 1.006,-10.567 h 9.192 l 1.11,10.567 h -0.051 c 3.9,0.671 7.561,2.031 10.859,3.951 v 0 l -0.036,-0.03 7.564,-7.447 7.041,5.907 -5.941,8.809 -0.049,-0.04 c 2.476,2.929 4.45,6.294 5.783,9.968 v 0 l 10.578,-0.843 1.596,9.051 -10.213,2.929 -0.007,-0.036 c 0,0.025 0.002,0.05 0.002,0.075 v 0 c 0,3.953 -0.7,7.744 -1.982,11.253 v 0 l 8.643,6.154 -4.595,7.959 -9.707,-4.322 0.024,-0.039 c -2.481,2.968 -5.479,5.485 -8.852,7.425 v 0 l 0.046,-0.016 2.668,10.273 -8.637,3.144 -4.657,-9.55 0.05,-0.018 c -1.878,0.334 -3.808,0.518 -5.782,0.518 v 0 c -1.974,0 -3.904,-0.184 -5.782,-0.518 v 0 l 0.05,0.018 -4.561,9.585 z m 0.194,-38.722 c 0,10.347 8.388,18.735 18.735,18.735 v 0 c 10.347,0 18.735,-8.388 18.735,-18.735 v 0 c 0,-10.347 -8.388,-18.735 -18.735,-18.735 v 0 c -10.347,0 -18.735,8.388 -18.735,18.735" transform="matrix(1.3333333,0,0,-1.3333333,0,793.70133)" fill="#001100" fill-opacity="1" stroke="#32FF32" stroke-width="4" />
    <path id="path14" d="m 376.334,457.294 -1.882,-20.678 0.096,0.002 c -7.47,-1.412 -14.62,-4.132 -21.105,-8.015 v 0 l 0.066,0.057 -14.982,14.345 -13.596,-11.736 11.845,-17.042 c -4.622,-5.653 -8.35,-12.197 -10.891,-19.492 v 0 c -0.016,-0.047 -0.028,-0.094 -0.045,-0.14 v 0 l 0.012,0.068 -20.698,1.359 -2.872,-17.73 20.032,-5.443 c 0.098,-7.637 1.579,-15.115 4.265,-22.11 v 0 l -0.061,0.103 -16.73,-12.264 9.197,-15.428 18.849,8.71 -0.048,0.08 c 4.853,-5.663 10.737,-10.525 17.502,-14.271 v 0 l -0.092,0.032 -4.933,-20.148 16.962,-5.906 8.841,18.786 -0.095,0.034 c 7.629,-1.267 15.26,-1.111 22.58,0.313 v 0 l -0.084,-0.033 9.172,-18.604 16.79,6.378 -5.304,20.074 -0.114,-0.044 c 6.45,3.815 12.256,8.756 17.077,14.682 v 0 l 18.982,-8.355 8.761,15.679 -16.966,11.968 -0.035,-0.062 c 0.016,0.047 0.036,0.091 0.052,0.137 v 0 c 2.541,7.296 3.684,14.742 3.572,22.043 v 0 l 19.907,5.8 -3.366,17.643 -20.69,-1.738 0.017,-0.088 c -2.671,7.071 -6.585,13.644 -11.563,19.391 v 0 l 0.073,-0.06 11.527,17.246 -13.92,11.352 -14.732,-14.631 0.081,-0.065 c -3.251,1.823 -6.694,3.403 -10.337,4.672 v 0 c -3.644,1.269 -7.324,2.169 -11.005,2.759 v 0 l 0.103,0.002 -2.255,20.619 z m -1.991,-118.202 c -19.095,6.649 -29.184,27.519 -22.535,46.616 v 0 c 6.649,19.095 27.52,29.184 46.616,22.535 v 0 c 19.095,-6.649 29.185,-27.52 22.535,-46.616 v 0 c -5.261,-15.109 -19.429,-24.58 -34.574,-24.581 v 0 c -3.995,-10e-4 -8.056,0.658 -12.042,2.046" transform="matrix(1.3333333,0,0,-1.3333333,0,793.70133)" fill="#001100" fill-opacity="1" stroke="#32FF32" stroke-width="4" />
    </g><g><path id="path15" d="M 0,0 5.632,6.797 C 6.176,7.453 6.473,8.279 6.473,9.131 V 38.616 H 2.374 c -0.673,0 -1.218,0.545 -1.218,1.218 v 2.859 c 0,0.673 0.545,1.218 1.218,1.218 H 6.473 L 1.326,50.748 C 1.167,50.96 1.081,51.217 1.081,51.481 v 1.391 c 0,0.672 0.545,1.217 1.217,1.217 h 4.175 l -5.068,7.739 c -0.129,0.198 -0.199,0.43 -0.199,0.667 v 1.309 c 0,0.673 0.546,1.218 1.218,1.218 h 4.049 l -4.876,7.797 c -0.121,0.193 -0.186,0.417 -0.186,0.645 v 1.074 c 0,0.672 0.546,1.218 1.218,1.218 H 6.473 L 1.638,83.61 c -0.118,0.192 -0.18,0.413 -0.18,0.639 v 1.274 c 0,0.673 0.545,1.218 1.217,1.218 H 6.473 L 1.498,94.58 c -0.124,0.195 -0.19,0.421 -0.19,0.652 v 1.116 c 0,0.673 0.546,1.218 1.218,1.218 h 3.947 l -4.899,7.689 c -0.125,0.196 -0.191,0.423 -0.191,0.654 v 1.489 c 0,0.672 0.545,1.217 1.218,1.217 h 4.157 v 165.701 l -46.947,29.305 V 89.818 h 18.413 c 1.821,0 3.297,-1.476 3.297,-3.297 V 32.366 l 18.14,-9.164 z" transform="matrix(1.3333333,0,0,-1.3333333,587.16787,496.1864)" clip-path="url(#clipPath16)" fill="#001100" fill-opacity="1" stroke="#32FF32" stroke-width="4" />
    <path id="path17" d="m 0,0 4.209,12.336 c 0.376,1.101 -0.443,2.246 -1.608,2.246 -0.937,0 -1.698,0.76 -1.698,1.698 v 0.337 c 0,0.765 0.513,1.436 1.252,1.638 l 5.641,1.538 c 0.738,0.202 1.251,0.873 1.251,1.639 v 4.963 c 0,0.938 -0.76,1.698 -1.698,1.698 H -0.36 c -0.938,0 -1.698,0.76 -1.698,1.698 v 94.493 c 0,0.157 0.022,0.313 0.065,0.464 l 5.423,19.056 c 0.043,0.152 0.064,0.308 0.064,0.465 v 28.603 c 0,0.637 -0.356,1.221 -0.923,1.511 l -16.576,8.504 c -0.567,0.291 -0.923,0.874 -0.923,1.511 v 51.532 c 0,0.938 -0.76,1.698 -1.698,1.698 h -22.213 c -0.938,0 -1.698,-0.76 -1.698,-1.698 v -63.226 c 0,-0.211 0.039,-0.419 0.115,-0.615 l 20.806,-53.553 c 0.076,-0.196 0.115,-0.405 0.115,-0.615 V 24.353 c 0,-0.289 -0.074,-0.573 -0.214,-0.825 l -5.515,-9.927 c -0.234,-0.422 -0.278,-0.924 -0.12,-1.381 l 4.234,-12.227 c 0.237,-0.684 0.881,-1.143 1.605,-1.143 h 17.904 c 0.726,0 1.372,0.462 1.607,1.15" transform="matrix(1.3333333,0,0,-1.3333333,577.402,700.80987)" clip-path="url(#clipPath18)" fill="#001100" fill-opacity="1" stroke="#32FF32" stroke-width="4" />
    <path id="path19" d="m 0,0 4.209,12.336 c 0.376,1.101 -0.443,2.246 -1.608,2.246 -0.937,0 -1.698,0.76 -1.698,1.698 v 0.337 c 0,0.765 0.513,1.436 1.252,1.638 l 5.641,1.538 c 0.738,0.202 1.251,0.873 1.251,1.639 v 4.963 c 0,0.938 -0.76,1.698 -1.698,1.698 H -0.36 c -0.938,0 -1.698,0.76 -1.698,1.698 v 94.493 c 0,0.157 0.022,0.313 0.065,0.464 l 5.423,19.056 c 0.043,0.152 0.064,0.308 0.064,0.465 v 28.603 c 0,0.637 -0.356,1.221 -0.923,1.511 l -16.576,8.504 c -0.567,0.291 -0.923,0.874 -0.923,1.511 v 51.532 c 0,0.938 -0.76,1.698 -1.698,1.698 h -22.213 c -0.938,0 -1.698,-0.76 -1.698,-1.698 v -63.226 c 0,-0.211 0.039,-0.419 0.115,-0.615 l 20.806,-53.553 c 0.076,-0.196 0.115,-0.405 0.115,-0.615 V 24.353 c 0,-0.289 -0.074,-0.573 -0.214,-0.825 l -5.515,-9.927 c -0.234,-0.422 -0.278,-0.924 -0.12,-1.381 l 4.234,-12.227 c 0.237,-0.684 0.881,-1.143 1.605,-1.143 h 17.904 c 0.726,0 1.372,0.462 1.607,1.15 z" transform="matrix(1.3333333,0,0,-1.3333333,577.402,700.80987)" clip-path="url(#clipPath20)" fill="#001100" fill-opacity="1" stroke="#32FF32" stroke-width="4" />
    <path id="path21" d="M 0,0 5.632,6.797 C 6.176,7.453 6.473,8.279 6.473,9.131 V 38.616 H 2.374 c -0.673,0 -1.218,0.545 -1.218,1.218 v 2.859 c 0,0.673 0.545,1.218 1.218,1.218 H 6.473 L 1.326,50.748 C 1.167,50.96 1.081,51.217 1.081,51.481 v 1.391 c 0,0.672 0.545,1.217 1.217,1.217 h 4.175 l -5.068,7.739 c -0.129,0.198 -0.199,0.43 -0.199,0.667 v 1.309 c 0,0.673 0.546,1.218 1.218,1.218 h 4.049 l -4.876,7.797 c -0.121,0.193 -0.186,0.417 -0.186,0.645 v 1.074 c 0,0.672 0.546,1.218 1.218,1.218 H 6.473 L 1.638,83.61 c -0.118,0.192 -0.18,0.413 -0.18,0.639 v 1.274 c 0,0.673 0.545,1.218 1.217,1.218 H 6.473 L 1.498,94.58 c -0.124,0.195 -0.19,0.421 -0.19,0.652 v 1.116 c 0,0.673 0.546,1.218 1.218,1.218 h 3.947 l -4.899,7.689 c -0.125,0.196 -0.191,0.423 -0.191,0.654 v 1.489 c 0,0.672 0.545,1.217 1.218,1.217 h 4.157 v 165.701 l -46.947,29.305 V 89.818 h 18.413 c 1.821,0 3.297,-1.476 3.297,-3.297 V 32.366 l 18.14,-9.164 z" transform="matrix(1.3333333,0,0,-1.3333333,587.16787,496.1864)" clip-path="url(#clipPath22)" fill="#001100" fill-opacity="1" stroke="#32FF32" stroke-width="4" />
    <path id="path23" d="m 0,0 4.209,12.336 c 0.376,1.101 -0.443,2.246 -1.608,2.246 -0.937,0 -1.698,0.76 -1.698,1.698 v 0.337 c 0,0.765 0.513,1.436 1.252,1.638 l 5.641,1.538 c 0.738,0.202 1.251,0.873 1.251,1.639 v 4.963 c 0,0.938 -0.76,1.698 -1.698,1.698 H -0.36 c -0.938,0 -1.698,0.76 -1.698,1.698 v 94.493 c 0,0.157 0.022,0.313 0.065,0.464 l 5.423,19.056 c 0.043,0.152 0.064,0.308 0.064,0.465 v 28.603 c 0,0.637 -0.356,1.221 -0.923,1.511 l -16.576,8.504 c -0.567,0.291 -0.923,0.874 -0.923,1.511 v 51.532 c 0,0.938 -0.76,1.698 -1.698,1.698 h -22.213 c -0.938,0 -1.698,-0.76 -1.698,-1.698 v -63.226 c 0,-0.211 0.039,-0.419 0.115,-0.615 l 20.806,-53.553 c 0.076,-0.196 0.115,-0.405 0.115,-0.615 V 24.353 c 0,-0.289 -0.074,-0.573 -0.214,-0.825 l -5.515,-9.927 c -0.234,-0.422 -0.278,-0.924 -0.12,-1.381 l 4.234,-12.227 c 0.237,-0.684 0.881,-1.143 1.605,-1.143 h 17.904 c 0.726,0 1.372,0.462 1.607,1.15" transform="matrix(1.3333333,0,0,-1.3333333,577.402,700.80987)" clip-path="url(#clipPath24)" fill="#001100" fill-opacity="1" stroke="#32FF32" stroke-width="4" />
  </g></svg>